<svg id="Isolation_Mode" data-name="Isolation Mode" xmlns="http://www.w3.org/2000/svg" viewBox="0 0 179.65 55.58"><defs><style>.cls-1{fill:#6b8915;}</style></defs><title>uqac</title><path class="cls-1" d="M91.27,378.78c-2.87,3.78-8.2,5.34-12.76,5.34-4.29,0-8.85-1.37-11.78-4.55-3.45-3.77-3.32-8.14-3.32-12.83V349.36c0-2.93.46-7.68-2.86-8.91v-0.2H72.92v0.2c-3.26,1.23-2.86,6-2.86,8.91v17.38c0,8.66,3.65,12.69,10.35,12.69a11.5,11.5,0,0,0,9.51-4.55c1.43-2,1.36-3.58,1.36-5.92V349.36c0-2.93.39-7.68-2.87-8.91v-0.2h12.37l0.06,0.2c-3.32,1.23-2.93,6-2.93,9V374c0,2.93-.39,7.68,2.93,8.91v0.2H91.27v-4.3Z" transform="translate(-60.55 -339.21)"/><path class="cls-1" d="M161.77,391.47a12.19,12.19,0,0,1-8.26,3.32c-6.45,0-15.75-7.35-20.77-11.32a24.42,24.42,0,0,1-5.33.65c-12.7,0-23-9.57-23-22.45,0-13.34,11.32-22.46,24.15-22.46s23.56,8.79,23.56,22.07c0,7.68-4.43,16-11.59,19.27,5.4,4.88,12.76,10.93,20.37,10.93h0.91Zm-17.12-28.9c0-9-5.6-18.68-16.53-18.68-10.41,0-16.34,8.07-16.34,16.59,0,10.61,6.83,18.94,16.66,18.94S144.65,372.14,144.65,362.57Z" transform="translate(-60.55 -339.21)"/><path class="cls-1" d="M168.41,367L165,376.17c-1.37,3.65-1.82,5.53,1.3,6.7v0.2h-12v-0.2c3.78-1.88,4.88-5.53,6.31-9.24l10.87-27.15c0.91-2.34,2.15-5.07-1-6v-0.2h10.29l13.54,33.39c1.5,3.71,2.67,7.36,6.38,9.24v0.2H187.42v-0.2c3.19-1.43,2.67-2.14.91-6.7L184.81,367h-16.4Zm8.14-21.22-6.45,16.4h12.83Z" transform="translate(-60.55 -339.21)"/><path class="cls-1" d="M236.89,348.32a22.58,22.58,0,0,0-12-3.71c-9,0-15.23,6.57-15.23,16s6.51,18.09,16.53,18.09a28.76,28.76,0,0,0,13.87-4.1h0.19l-3.32,7.55a23.08,23.08,0,0,1-9.83,2c-15.37,0-24.87-8.59-24.87-22.52,0-13.48,9.5-22.39,22.84-22.39a52.09,52.09,0,0,1,11.85,1.63v7.49Z" transform="translate(-60.55 -339.21)"/></svg>